<?xml version="1.0" encoding="UTF-8"?>
<svg xmlns="http://www.w3.org/2000/svg" xmlns:xlink="http://www.w3.org/1999/xlink" width="3000" height="3000" viewBox="0 0 3000 3000">
<path fill-rule="nonzero" fill="rgb(12.889099%, 12.889099%, 12.889099%)" fill-opacity="1" d="M 833.308594 792.449219 C 850.410156 682.980469 892.199219 577.441406 958.46875 486.421875 C 968.039062 506.609375 977.609375 526.800781 984.449219 554.878906 C 1009.410156 471.328125 1049.488281 392.28125 1104.511719 323.011719 C 1106.789062 345.210938 1108.441406 367.140625 1117.441406 387.421875 C 1169.21875 272.191406 1287.871094 175.5 1409.070312 128.21875 C 1405.351562 322.800781 1450.800781 521.398438 1564.921875 678.449219 C 1577.339844 645.539062 1589.789062 612.628906 1601.941406 578.578125 C 1615.890625 605.308594 1629.808594 632.039062 1648.078125 652.5 C 1767.148438 619.558594 1882.621094 573.691406 1991.851562 515.96875 C 2036.28125 492.480469 2079.929688 466.949219 2127.089844 449.609375 C 2174.25 432.269531 2243.488281 407.578125 2298.78125 448.921875 C 2263.621094 581.730469 2180.039062 688.378906 2085.78125 788.25 C 2097.601562 790.410156 2109.421875 792.601562 2125.949219 796.679688 C 2082.511719 850.710938 2028.871094 896.519531 1968.871094 935.191406 C 2055.898438 1039.351562 2142.898438 1143.480469 2237.128906 1250.550781 C 2216.578125 1309.5 2238.300781 1376.820312 2277.960938 1425.03125 C 2317.621094 1473.269531 2372.820312 1505.820312 2427.898438 1535.21875 C 2545.140625 1597.769531 2669.941406 1652.429688 2763.570312 1740.058594 C 2754.660156 1792.050781 2736.449219 1842.449219 2710.019531 1888.140625 C 2703.238281 1899.871094 2695.738281 1911.480469 2685.328125 1920.121094 C 2674.890625 1928.761719 2661.03125 1934.160156 2653.441406 1929.71875 C 2626.679688 1971.148438 2615.21875 2022.148438 2582.429688 2059.019531 C 2575.5 2066.820312 2567.488281 2073.988281 2557.769531 2077.738281 C 2548.050781 2081.519531 2536.378906 2081.371094 2528.191406 2075.101562 C 2506.050781 2119.410156 2461.378906 2149.078125 2414.191406 2164.078125 C 2367 2179.078125 2316.839844 2181.238281 2267.339844 2183.308594 C 2194.769531 2186.308594 2122.199219 2189.308594 2049.628906 2192.308594 C 2010.539062 2193.929688 1968.601562 2196.539062 1937.789062 2220.691406 C 1911.269531 2241.480469 1897.921875 2274.601562 1888.230469 2306.878906 C 1857.359375 2409.480469 1852.109375 2519.640625 1873.078125 2622.929688 C 1798.320312 2630.25 1721.21875 2610.871094 1668.421875 2561.488281 C 1707.359375 2653.558594 1765.738281 2737.320312 1847.011719 2806.351562 C 1727.730469 2827.289062 1601.191406 2804.039062 1502.429688 2735.339844 C 1510.261719 2784.660156 1530.390625 2831.96875 1560.480469 2871.808594 C 1402.441406 2850.78125 1253.519531 2767.53125 1152.269531 2639.640625 C 1148.460938 2683.980469 1155.449219 2729.21875 1170.058594 2775.628906 C 1007.460938 2672.191406 868.53125 2531.820312 770.671875 2360.101562 C 763.261719 2414.640625 769.949219 2471.011719 794.070312 2523.78125 C 581.339844 2406.269531 423.660156 2193.511719 374.460938 1955.671875 C 332.730469 1989.421875 296.96875 2030.488281 269.21875 2076.421875 C 227.878906 1868.25 291.898438 1641.871094 436.410156 1488.359375 C 371.25 1511.25 301.769531 1521.898438 236.488281 1510.378906 C 321.839844 1400.699219 404.28125 1288.46875 476.25 1169.609375 C 521.640625 1094.671875 563.039062 1016.820312 617.519531 948.179688 C 672 879.539062 741.691406 819.601562 833.308594 792.449219 "/>
<path fill-rule="nonzero" fill="rgb(32.200623%, 30.589294%, 30.589294%)" fill-opacity="1" d="M 1969.621094 2005.800781 C 2012.429688 1997.25 2056.558594 1998.988281 2100.210938 2000.761719 C 2247.539062 2006.699219 2394.898438 2012.640625 2539.320312 2025.78125 C 2563.800781 1994.429688 2585.308594 1960.738281 2600.878906 1926.539062 C 2595.121094 1920.03125 2589.539062 1913.398438 2584.199219 1906.589844 C 2555.28125 1870.050781 2531.820312 1829.25 2514.691406 1785.929688 C 2510.699219 1775.730469 2507.070312 1764.839844 2505.359375 1753.949219 C 2503.351562 1741.320312 2503.949219 1728.691406 2509.558594 1717.261719 C 2516.550781 1703.039062 2530.441406 1693.171875 2545.289062 1687.710938 C 2546.039062 1687.441406 2546.789062 1687.171875 2547.539062 1686.929688 C 2561.730469 1682.070312 2576.730469 1680.449219 2588.460938 1677.121094 C 2492.398438 1637.910156 2394.71875 1597.769531 2314.53125 1531.890625 C 2234.371094 1466.011719 2172.929688 1369.261719 2178.960938 1268.578125 C 2062.109375 1136.671875 1949.070312 1001.398438 1840.019531 863.011719 C 1840.019531 863.011719 1814.640625 964.738281 1819.648438 974.339844 C 1727.128906 903 1653.570312 807.390625 1609.769531 695.128906 C 1606.46875 702.300781 1603.558594 709.621094 1601.039062 717.269531 C 1601.039062 717.269531 1601.039062 717.269531 1601.039062 717.300781 C 1593.691406 739.648438 1589.699219 764.671875 1588.261719 795.359375 C 1493.761719 682.5 1420.109375 552.269531 1376.460938 415.171875 C 1375.5 426.960938 1374.691406 438.75 1374.03125 450.570312 L 1374.03125 450.601562 C 1367.519531 567.421875 1376.039062 685.109375 1401.960938 800.820312 C 1416.148438 777.71875 1430.339844 754.648438 1444.5 731.578125 C 1448.851562 776.96875 1453.199219 822.359375 1457.488281 867.75 C 1465.980469 844.078125 1480.140625 822.480469 1498.5 805.351562 C 1495.769531 826.828125 1493.039062 848.308594 1491.601562 877.140625 C 1513.800781 864.480469 1539.148438 857.339844 1564.710938 856.648438 C 1485.359375 896.25 1417.890625 959.429688 1372.53125 1036.410156 C 1372.410156 1005.988281 1376.398438 975.539062 1384.378906 946.199219 C 1357.558594 975.480469 1336.410156 1009.980469 1323.121094 1048.710938 C 1293.75 954.660156 1264.320312 860.28125 1246.800781 763.320312 C 1229.339844 666.328125 1224.058594 566.128906 1243.171875 469.441406 C 1263.210938 368.070312 1309.410156 273.511719 1362.898438 186.421875 C 1240.171875 257.671875 1143.179688 372.238281 1091.730469 502.46875 C 1083.808594 476.550781 1081.078125 449.101562 1083.691406 422.128906 C 1041.960938 502.019531 999.988281 582.601562 973.230469 670.140625 C 961.679688 639.988281 953.429688 608.578125 950.671875 581.851562 C 906.210938 669.390625 898.441406 774.839844 929.609375 867.929688 C 960.75 961.050781 1030.410156 1040.609375 1118.578125 1083.808594 C 1098.539062 1088.339844 1078.46875 1092.929688 1059.511719 1104.71875 C 1105.140625 1119.238281 1154.160156 1123.019531 1201.5 1115.699219 C 1157.191406 1147.5 1096.800781 1149.988281 1044.75 1133.851562 C 1043.160156 1133.371094 1041.601562 1132.859375 1040.039062 1132.320312 C 1038.449219 1131.808594 1036.890625 1131.269531 1035.328125 1130.730469 C 1035.238281 1130.699219 1035.148438 1130.671875 1035.058594 1130.640625 C 1032.03125 1129.558594 1029.03125 1128.449219 1026.058594 1127.25 C 1023.691406 1126.320312 1021.320312 1125.328125 1018.980469 1124.339844 C 1018.019531 1123.949219 1017.089844 1123.53125 1016.160156 1123.109375 C 1013.398438 1121.910156 1010.671875 1120.648438 1007.96875 1119.359375 C 1006.46875 1118.671875 1004.96875 1117.949219 1003.5 1117.199219 C 996.808594 1113.898438 990.238281 1110.359375 983.789062 1106.609375 C 982.53125 1105.890625 981.238281 1105.140625 979.980469 1104.390625 C 979.109375 1103.878906 978.210938 1103.339844 977.339844 1102.828125 C 975.988281 1102.019531 974.640625 1101.179688 973.320312 1100.371094 C 973.261719 1100.339844 973.230469 1100.308594 973.171875 1100.28125 C 971.429688 1099.199219 969.71875 1098.121094 968.011719 1097.011719 C 966.511719 1096.078125 965.011719 1095.089844 963.539062 1094.101562 C 962.429688 1093.378906 961.320312 1092.660156 960.210938 1091.878906 C 958.378906 1090.710938 956.578125 1089.511719 954.808594 1088.25 C 954.089844 1087.769531 953.371094 1087.261719 952.648438 1086.75 C 950.699219 1085.429688 948.78125 1084.078125 946.890625 1082.699219 C 944.429688 1080.960938 941.96875 1079.191406 939.539062 1077.390625 C 937.109375 1075.621094 934.679688 1073.789062 932.28125 1071.960938 C 929.941406 1070.21875 927.628906 1068.449219 925.320312 1066.621094 C 924.71875 1066.171875 924.121094 1065.71875 923.550781 1065.269531 C 921.179688 1063.441406 918.839844 1061.578125 916.5 1059.71875 C 913.890625 1057.679688 911.308594 1055.578125 908.730469 1053.480469 C 907.53125 1052.519531 906.328125 1051.558594 905.128906 1050.570312 C 906.511719 1050.808594 907.921875 1051.019531 909.300781 1051.261719 C 940.019531 1056.269531 970.738281 1061.25 1001.460938 1066.261719 C 1000.019531 1065.359375 998.609375 1064.460938 997.199219 1063.53125 C 995.789062 1062.628906 994.378906 1061.699219 992.96875 1060.738281 C 991.738281 1059.929688 990.511719 1059.121094 989.308594 1058.25 C 987.929688 1057.320312 986.550781 1056.359375 985.199219 1055.371094 C 983.640625 1054.261719 982.078125 1053.121094 980.550781 1051.980469 C 973.769531 1046.910156 967.199219 1041.601562 960.839844 1035.960938 C 959.550781 1034.878906 958.289062 1033.738281 957.058594 1032.570312 C 955.800781 1031.460938 954.539062 1030.289062 953.308594 1029.089844 C 948.359375 1024.441406 943.53125 1019.609375 938.910156 1014.570312 C 909.511719 983.011719 886.019531 944.578125 870.269531 900.210938 C 868.289062 894.660156 866.460938 889.019531 864.71875 883.289062 C 841.261719 886.199219 818.820312 893.128906 797.640625 903.03125 C 749.429688 925.589844 707.699219 963.871094 675 1006.621094 C 627.960938 1068.179688 595.890625 1139.550781 557.398438 1206.78125 C 505.171875 1298.039062 440.640625 1382.21875 366.71875 1457.191406 C 383.398438 1452.449219 400.050781 1447.679688 416.761719 1442.941406 C 493.320312 1421.191406 570.300781 1399.109375 649.859375 1375.140625 C 478.289062 1498.46875 357.179688 1689.929688 319.320312 1897.800781 C 331.621094 1884.808594 344.578125 1872.449219 358.078125 1860.421875 C 384.121094 1837.109375 412.109375 1815 440.730469 1791.449219 C 428.128906 1890.449219 444.929688 1993.050781 488.488281 2082.839844 C 532.050781 2172.628906 602.21875 2249.308594 689.671875 2302.859375 C 688.589844 2288.308594 687.988281 2273.671875 687.871094 2258.730469 C 687.359375 2213.429688 690.601562 2165.128906 694.351562 2106.058594 C 785.550781 2288.96875 917.160156 2451.570312 1070.460938 2583.78125 C 1062.839844 2525.941406 1057.558594 2467.769531 1050.570312 2394.570312 C 1149.960938 2547.808594 1285.949219 2677.171875 1446.601562 2771.460938 C 1417.230469 2710.46875 1397.761719 2644.710938 1379.96875 2573.371094 C 1461.988281 2648.730469 1562.25 2704.019531 1664.039062 2726.011719 C 1576.441406 2615.640625 1516.710938 2483.308594 1487.429688 2331.300781 C 1555.378906 2418.269531 1650.328125 2483.851562 1758.421875 2520.390625 C 1762.378906 2521.738281 1766.371094 2523.058594 1770.390625 2524.289062 C 1772.488281 2524.980469 1774.621094 2525.640625 1776.75 2526.300781 C 1776.78125 2526.300781 1776.839844 2526.328125 1776.871094 2526.328125 C 1776.660156 2524.078125 1776.449219 2521.828125 1776.238281 2519.578125 C 1768.558594 2431.769531 1782.78125 2342.070312 1817.308594 2260.921875 C 1837.558594 2213.28125 1866.390625 2166.871094 1910.671875 2140.078125 C 1979.429688 2098.410156 2066.398438 2113.261719 2146.738281 2116.621094 C 2249.070312 2120.96875 2352.269531 2104.078125 2452.171875 2063.101562 C 2314.558594 2043.71875 2175.660156 2033.28125 2036.699219 2031.988281 C 1974.929688 2031.421875 1908.601562 2034.058594 1857.929688 2068.859375 C 1884.71875 2034.359375 1926.78125 2014.378906 1969.621094 2005.800781 Z M 1838.371094 1314.390625 C 1867.261719 1305.75 1897.5 1295.96875 1926.988281 1302.359375 C 1945.441406 1306.378906 1961.910156 1316.429688 1978.890625 1324.679688 C 1995.898438 1332.929688 2014.890625 1339.589844 2033.398438 1336.019531 C 2051.96875 1332.480469 2069.039062 1315.410156 2066.460938 1296.691406 C 2067.179688 1298.730469 2067.808594 1300.800781 2068.320312 1302.839844 C 2071.710938 1316.191406 2070.449219 1329.328125 2064.570312 1340.101562 C 2057.789062 1352.550781 2045.011719 1361.488281 2031.03125 1363.621094 C 2026.769531 1379.460938 2024.519531 1391.460938 2022.300781 1403.429688 C 2004.480469 1423.078125 1979.101562 1435.441406 1952.429688 1439.878906 C 1898.371094 1424.96875 1843.800781 1399.410156 1796.730469 1363.828125 C 1715.101562 1380.390625 1626.78125 1380.089844 1541.398438 1363.890625 C 1646.851562 1359.210938 1744.289062 1342.441406 1838.371094 1314.390625 Z M 1360.109375 2293.230469 C 1358.878906 2292.808594 1357.648438 2292.359375 1356.449219 2291.910156 C 1356.238281 2291.851562 1356 2291.761719 1355.789062 2291.671875 C 1351.230469 2289.988281 1346.699219 2288.25 1342.171875 2286.480469 C 1216.378906 2236.441406 1107.210938 2145.269531 1036.078125 2030.101562 C 1038.601562 2091.238281 1047.210938 2156.671875 1060.828125 2221.078125 C 978.121094 2142.121094 901.921875 2056.140625 849.03125 1956.148438 C 796.109375 1856.101562 767.578125 1740.75 783.570312 1628.761719 C 799.53125 1516.738281 863.609375 1409.308594 962.671875 1354.648438 C 923.671875 1365.71875 884.640625 1376.820312 845.609375 1387.921875 C 916.679688 1308.480469 1021.769531 1280.039062 1120.078125 1310.519531 C 989.039062 1356.148438 885.421875 1473.269531 856.171875 1608.929688 C 826.890625 1744.558594 872.941406 1893.988281 970.621094 1993.261719 C 969.390625 1982.25 968.160156 1971.238281 966.988281 1960.171875 C 960.691406 1900.769531 956.101562 1840.980469 962.761719 1781.699219 C 970.648438 1711.410156 995.820312 1640.878906 1045.679688 1590.75 C 1015.5 1727.550781 1041.75 1871.128906 1104.71875 1992.960938 C 1167.71875 2114.761719 1265.429688 2216.101562 1375.078125 2298.449219 C 1370.070312 2296.769531 1365.058594 2295.03125 1360.109375 2293.230469 Z M 2114.070312 585.78125 C 2094.660156 587.160156 2075.25 588.511719 2055.898438 589.890625 C 2109.539062 546.539062 2169.808594 511.320312 2233.980469 485.910156 C 2233.050781 484.890625 2232.089844 483.929688 2231.039062 483.058594 C 2214.03125 468.179688 2182.949219 469.410156 2156.96875 479.371094 C 2129.398438 489.929688 2106.03125 508.859375 2082.269531 526.378906 C 1961.371094 615.898438 1819.109375 676.351562 1669.109375 698.761719 C 1672.019531 704.460938 1675.738281 710.941406 1680 717.929688 C 1696.710938 745.320312 1722.179688 780.898438 1744.410156 810.75 C 1769.101562 843.898438 1789.679688 870 1789.679688 870 C 1789.679688 870 1807.621094 797.371094 1827.390625 770.910156 C 1870.621094 811.351562 1906.558594 850.769531 1939.351562 892.621094 C 1987.378906 874.230469 2028.691406 848.011719 2063.371094 814.769531 C 2021.699219 808.199219 1977.359375 811.078125 1937.25 825.71875 C 1976.910156 757.980469 2038.558594 703.320312 2110.558594 672.058594 C 2078.011719 676.828125 2045.398438 681.601562 2012.851562 686.371094 C 2055.148438 643.378906 2105.191406 608.070312 2159.820312 582.570312 C 2144.578125 583.648438 2129.339844 584.699219 2114.070312 585.78125 "/>
<path fill-rule="nonzero" fill="rgb(23.094177%, 23.094177%, 23.094177%)" fill-opacity="1" d="M 1969.621094 2005.800781 C 2012.429688 1997.25 2056.558594 1998.988281 2100.210938 2000.761719 C 2247.539062 2006.699219 2394.898438 2012.640625 2539.320312 2025.78125 C 2563.800781 1994.429688 2585.308594 1960.738281 2600.878906 1926.539062 C 2595.121094 1920.03125 2589.539062 1913.398438 2584.199219 1906.589844 C 2555.28125 1870.050781 2531.820312 1829.25 2514.691406 1785.929688 C 2510.699219 1775.730469 2507.070312 1764.839844 2505.359375 1753.949219 C 2289.75 1762.589844 2081.578125 1679.429688 1869.058594 1639.738281 C 1781.941406 1623.449219 1686.75 1615.648438 1609.378906 1658.878906 C 1671.210938 1656.421875 1733.699219 1676.96875 1783.199219 1719.359375 C 1701.390625 1710.511719 1617.089844 1734.78125 1550.820312 1783.289062 C 1492.320312 1819.46875 1442.011719 1868.789062 1406.191406 1927.53125 C 1339.800781 2036.339844 1332.058594 2173.171875 1375.078125 2298.449219 C 1370.910156 2296.949219 1365.75 2295.210938 1360.109375 2293.230469 C 1358.910156 2292.808594 1357.679688 2292.359375 1356.449219 2291.910156 C 1356.238281 2291.851562 1356 2291.761719 1355.789062 2291.671875 C 1351.378906 2290.078125 1346.789062 2288.371094 1342.171875 2286.480469 C 1216.378906 2236.441406 1107.210938 2145.269531 1036.078125 2030.101562 C 1038.601562 2091.238281 1047.210938 2156.671875 1060.828125 2221.078125 C 978.121094 2142.121094 901.921875 2056.140625 849.03125 1956.148438 C 796.109375 1856.101562 767.578125 1740.75 783.570312 1628.761719 C 799.53125 1516.738281 863.609375 1409.308594 962.671875 1354.648438 C 923.671875 1365.71875 884.640625 1376.820312 845.609375 1387.921875 C 896.941406 1278.421875 1144.378906 1207.980469 1201.5 1115.699219 C 1157.191406 1147.5 1096.800781 1149.988281 1044.75 1133.851562 C 1043.160156 1133.371094 1041.601562 1132.859375 1040.039062 1132.320312 C 1038.449219 1131.808594 1036.890625 1131.269531 1035.328125 1130.730469 C 1035.238281 1130.699219 1035.148438 1130.671875 1035.058594 1130.640625 C 1032.058594 1129.558594 1029.058594 1128.421875 1026.058594 1127.25 C 1023.691406 1126.320312 1021.320312 1125.328125 1018.980469 1124.339844 C 1018.050781 1123.949219 1017.089844 1123.53125 1016.160156 1123.109375 C 1013.398438 1121.910156 1010.671875 1120.648438 1007.96875 1119.359375 C 1006.46875 1118.671875 1004.96875 1117.949219 1003.5 1117.199219 C 996.808594 1113.898438 990.238281 1110.359375 983.789062 1106.609375 C 982.53125 1105.890625 981.238281 1105.140625 979.980469 1104.390625 C 979.109375 1103.878906 978.210938 1103.339844 977.339844 1102.828125 C 975.988281 1102.019531 974.671875 1101.179688 973.320312 1100.371094 C 973.261719 1100.339844 973.230469 1100.308594 973.171875 1100.28125 C 971.429688 1099.199219 969.71875 1098.121094 968.011719 1097.011719 C 966.511719 1096.078125 965.011719 1095.089844 963.539062 1094.101562 C 962.429688 1093.378906 961.320312 1092.660156 960.210938 1091.878906 C 958.378906 1090.710938 956.578125 1089.480469 954.808594 1088.25 C 954.089844 1087.769531 953.371094 1087.261719 952.648438 1086.75 C 950.699219 1085.429688 948.808594 1084.078125 946.890625 1082.699219 C 944.429688 1080.960938 941.96875 1079.191406 939.539062 1077.390625 C 937.109375 1075.589844 934.679688 1073.789062 932.28125 1071.960938 C 929.941406 1070.191406 927.628906 1068.421875 925.320312 1066.621094 C 924.71875 1066.171875 924.121094 1065.71875 923.550781 1065.269531 C 921.179688 1063.410156 918.839844 1061.578125 916.5 1059.71875 C 913.890625 1057.648438 911.308594 1055.578125 908.730469 1053.480469 C 908.941406 1052.761719 909.121094 1052.011719 909.300781 1051.261719 C 940.019531 1056.269531 970.738281 1061.25 1001.460938 1066.261719 C 1000.019531 1065.359375 998.609375 1064.460938 997.199219 1063.53125 C 995.761719 1062.628906 994.351562 1061.699219 992.96875 1060.738281 C 991.738281 1059.929688 990.511719 1059.089844 989.308594 1058.25 C 987.929688 1057.320312 986.550781 1056.359375 985.199219 1055.371094 C 983.640625 1054.261719 982.078125 1053.121094 980.550781 1051.980469 C 973.769531 1046.910156 967.199219 1041.601562 960.839844 1035.960938 C 959.578125 1034.851562 958.320312 1033.710938 957.058594 1032.570312 C 955.800781 1031.429688 954.570312 1030.261719 953.308594 1029.089844 C 948.359375 1024.441406 943.558594 1019.578125 938.910156 1014.570312 C 909.511719 983.011719 886.019531 944.578125 870.269531 900.210938 C 868.289062 894.660156 866.460938 889.019531 864.71875 883.289062 C 841.261719 886.199219 818.820312 893.128906 797.640625 903.03125 C 749.429688 925.589844 707.699219 963.871094 675 1006.621094 C 627.960938 1068.179688 595.890625 1139.550781 557.398438 1206.78125 C 505.171875 1298.039062 440.640625 1382.21875 366.71875 1457.191406 C 383.398438 1452.449219 400.050781 1447.679688 416.761719 1442.941406 C 493.320312 1421.191406 570.300781 1399.109375 649.859375 1375.140625 C 478.289062 1498.46875 357.179688 1689.929688 319.320312 1897.800781 C 331.621094 1884.808594 344.578125 1872.449219 358.078125 1860.421875 C 384.121094 1837.109375 412.109375 1815 440.730469 1791.449219 C 428.128906 1890.449219 444.929688 1993.050781 488.488281 2082.839844 C 532.050781 2172.628906 602.21875 2249.308594 689.671875 2302.859375 C 688.589844 2288.308594 687.988281 2273.671875 687.871094 2258.730469 C 687.359375 2213.429688 690.601562 2165.128906 694.351562 2106.058594 C 785.550781 2288.96875 917.160156 2451.570312 1070.460938 2583.78125 C 1062.839844 2525.941406 1057.558594 2467.769531 1050.570312 2394.570312 C 1149.960938 2547.808594 1285.949219 2677.171875 1446.601562 2771.460938 C 1417.230469 2710.46875 1397.761719 2644.710938 1379.96875 2573.371094 C 1461.988281 2648.730469 1562.25 2704.019531 1664.039062 2726.011719 C 1576.441406 2615.640625 1516.710938 2483.308594 1487.429688 2331.300781 C 1555.378906 2418.269531 1650.328125 2483.851562 1758.421875 2520.390625 C 1762.378906 2521.738281 1766.371094 2523.058594 1770.390625 2524.289062 C 1772.488281 2524.980469 1774.621094 2525.640625 1776.75 2526.300781 C 1776.78125 2526.300781 1776.839844 2526.328125 1776.871094 2526.328125 C 1776.660156 2524.078125 1776.449219 2521.828125 1776.238281 2519.578125 C 1768.558594 2431.769531 1782.78125 2342.070312 1817.308594 2260.921875 C 1837.558594 2213.28125 1866.390625 2166.871094 1910.671875 2140.078125 C 1979.429688 2098.410156 2066.398438 2113.261719 2146.738281 2116.621094 C 2249.070312 2120.96875 2352.269531 2104.078125 2452.171875 2063.101562 C 2314.558594 2043.71875 2175.660156 2033.28125 2036.699219 2031.988281 C 1974.929688 2031.421875 1908.601562 2034.058594 1857.929688 2068.859375 C 1884.71875 2034.359375 1926.78125 2014.378906 1969.621094 2005.800781 Z M 1937.25 825.71875 C 1977.359375 811.078125 2021.671875 808.199219 2063.371094 814.769531 C 2028.691406 848.011719 1987.378906 874.230469 1939.351562 892.621094 C 1906.558594 850.769531 1870.621094 811.351562 1827.390625 770.910156 C 1807.621094 797.371094 1789.679688 870 1789.679688 870 C 1789.679688 870 1769.070312 843.871094 1744.378906 810.75 C 1767.660156 773.578125 1797.238281 739.980469 1834.828125 711.359375 C 1855.949219 730.140625 1877.039062 748.890625 1895.789062 767.910156 C 1914.871094 746.429688 1937.371094 728.039062 1962.210938 713.671875 C 1941.75 718.019531 1921.261719 722.398438 1900.800781 726.75 C 1957.621094 662.160156 2031.929688 613.46875 2114.070312 585.78125 C 2129.339844 584.699219 2144.550781 583.648438 2159.820312 582.570312 C 2105.191406 608.039062 2055.148438 643.378906 2012.820312 686.371094 C 2045.371094 681.601562 2077.980469 676.828125 2110.558594 672.03125 C 2038.558594 703.320312 1976.910156 757.980469 1937.25 825.71875 Z M 2084.039062 1369.980469 C 2079.988281 1390.859375 2067 1409.851562 2047.320312 1423.980469 C 2021.28125 1468.261719 1973.160156 1496.101562 1923.421875 1508.820312 C 1873.621094 1521.511719 1821.511719 1520.910156 1770.121094 1520.25 C 1795.078125 1509.691406 1818.390625 1495.410156 1840.5 1476.839844 C 1777.710938 1491.238281 1711.199219 1489.109375 1649.460938 1470.660156 C 1680.511719 1462.828125 1710.660156 1451.398438 1748.398438 1434.058594 C 1644.390625 1436.308594 1539.960938 1414.589844 1445.460938 1371.089844 C 1445.460938 1371.089844 1535.429688 1365.78125 1541.429688 1363.921875 C 1626.808594 1380.121094 1715.128906 1380.421875 1796.761719 1363.859375 C 1843.828125 1399.441406 1898.398438 1425.03125 1952.429688 1439.910156 C 1979.128906 1435.46875 2004.511719 1423.109375 2022.300781 1403.460938 C 2024.550781 1391.460938 2026.769531 1379.488281 2031.058594 1363.648438 C 2045.011719 1361.519531 2057.820312 1352.550781 2064.601562 1340.128906 C 2070.480469 1329.328125 2071.738281 1316.21875 2068.351562 1302.871094 C 2080.828125 1320.03125 2088.058594 1349.070312 2084.039062 1369.980469 "/>
<path fill-rule="nonzero" fill="rgb(94.921875%, 59.179688%, 15.306091%)" fill-opacity="1" d="M 2598.328125 1729.261719 C 2587.679688 1729.949219 2576.578125 1731.570312 2567.878906 1737.75 C 2557.859375 1744.859375 2552.519531 1757.128906 2551.078125 1769.308594 C 2549.609375 1781.488281 2551.558594 1793.820312 2553.511719 1805.941406 C 2543.25 1794.210938 2534.820312 1780.351562 2532.210938 1764.960938 C 2529.601562 1749.601562 2533.53125 1732.589844 2544.808594 1721.820312 C 2559.539062 1707.78125 2582.398438 1707.238281 2602.558594 1710.03125 C 2637.03125 1714.800781 2670.480469 1726.921875 2700.03125 1745.308594 C 2660.96875 1731.449219 2629.46875 1727.191406 2598.328125 1729.261719 Z M 2001.871094 1364.308594 C 1975.378906 1359 1949.730469 1349.519531 1926.691406 1335.269531 C 1895.761719 1338.148438 1865.011719 1343.011719 1836.660156 1349.578125 C 1859.039062 1369.050781 1885.230469 1384.050781 1913.339844 1393.53125 C 1929.449219 1398.960938 1946.730469 1402.589844 1963.441406 1399.378906 C 1980.148438 1396.199219 1996.109375 1384.949219 2001.871094 1364.308594 Z M 2233.980469 485.910156 C 2194.621094 473.550781 2158.441406 484.230469 2120.550781 512.339844 C 2059.558594 557.550781 1886.730469 698.789062 1680 717.960938 C 1675.738281 710.941406 1672.019531 704.460938 1669.109375 698.789062 C 1819.109375 676.378906 1961.371094 615.929688 2082.269531 526.410156 C 2106.03125 508.890625 2129.398438 489.929688 2156.941406 479.371094 C 2182.949219 469.410156 2215.980469 467.910156 2233.980469 485.910156 Z M 2588.460938 1677.121094 C 2576.730469 1680.449219 2561.730469 1682.070312 2547.539062 1686.929688 C 2456.460938 1644.238281 2375.730469 1610.699219 2298.269531 1551.058594 C 2215.621094 1487.429688 2151.808594 1390.320312 2156.609375 1281.808594 C 2029.171875 1149.449219 1930.648438 1022.761719 1840.019531 862.980469 C 1949.070312 1001.398438 2062.109375 1136.671875 2178.960938 1268.550781 C 2172.898438 1369.261719 2234.371094 1465.980469 2314.53125 1531.859375 C 2394.71875 1597.769531 2492.398438 1637.910156 2588.460938 1677.121094 Z M 1819.648438 974.339844 C 1728.660156 907.078125 1651.921875 818.371094 1601.039062 717.300781 C 1601.039062 717.269531 1601.039062 717.269531 1601.039062 717.269531 C 1603.558594 709.621094 1606.441406 702.300781 1609.769531 695.128906 C 1653.570312 807.390625 1727.128906 903 1819.648438 974.339844 Z M 1588.261719 795.359375 C 1527.628906 734.398438 1467.300781 667.679688 1425.660156 592.410156 C 1401.269531 548.28125 1382.851562 500.101562 1374.03125 450.601562 L 1374.03125 450.570312 C 1374.691406 438.75 1375.5 426.960938 1376.460938 415.171875 C 1420.109375 552.269531 1493.761719 682.5 1588.261719 795.359375 Z M 950.851562 690.960938 C 947.699219 771.390625 967.441406 850.351562 1006.050781 918.75 C 1044.691406 987.179688 1102.140625 1044.871094 1170.390625 1083.78125 C 1153.019531 1090.890625 1135.648438 1098 1118.28125 1105.078125 C 1139.878906 1114.980469 1175.789062 1119.210938 1201.46875 1115.699219 C 1154.128906 1123.019531 1105.109375 1119.238281 1059.480469 1104.71875 C 1078.441406 1092.929688 1098.511719 1088.339844 1118.550781 1083.808594 C 1030.378906 1040.609375 960.691406 961.078125 929.578125 867.960938 C 898.410156 774.871094 906.179688 669.390625 950.609375 581.851562 C 953.371094 608.609375 961.621094 639.988281 973.199219 670.171875 C 999.960938 582.628906 1041.929688 502.050781 1083.660156 422.128906 C 1081.050781 449.128906 1083.78125 476.578125 1091.699219 502.5 C 1143.148438 372.269531 1240.140625 257.671875 1362.871094 186.449219 C 1227.988281 294.269531 1135.109375 442.230469 1095.601562 619.589844 C 1080.210938 588.089844 1069.261719 554.429688 1063.109375 519.929688 C 1019.609375 596.25 998.640625 680.371094 998.191406 764.671875 C 978.898438 742.589844 962.878906 717.660156 950.851562 690.960938 Z M 878.851562 1626.660156 C 860.039062 1743.570312 893.640625 1867.5 966.988281 1960.199219 C 968.160156 1971.269531 969.390625 1982.28125 970.621094 1993.261719 C 872.941406 1893.988281 826.859375 1744.558594 856.171875 1608.929688 C 885.421875 1473.300781 989.039062 1356.148438 1120.109375 1310.550781 C 998.339844 1360.890625 900.449219 1492.140625 878.851562 1626.660156 Z M 1375.078125 2298.449219 C 1265.429688 2216.101562 1167.71875 2114.761719 1104.75 1992.929688 C 1041.75 1871.128906 1015.5 1727.519531 1045.710938 1590.71875 C 1032.238281 1745.429688 1075.5 1911.449219 1156.441406 2044.019531 C 1215.449219 2140.738281 1292.96875 2220.328125 1375.078125 2298.449219 Z M 797.640625 903.03125 C 736.679688 941.671875 688.53125 1000.410156 650.671875 1062.71875 C 603.390625 1140.480469 569.21875 1225.53125 523.738281 1304.371094 C 494.550781 1354.949219 459.601562 1403.789062 416.730469 1442.941406 C 400.019531 1447.679688 383.371094 1452.421875 366.691406 1457.160156 C 440.609375 1382.21875 505.140625 1298.011719 557.371094 1206.75 C 595.859375 1139.519531 627.898438 1068.148438 674.96875 1006.589844 C 707.699219 963.871094 749.429688 925.589844 797.640625 903.03125 Z M 649.859375 1375.140625 C 513.660156 1508.191406 410.308594 1677.300781 358.078125 1860.421875 C 344.578125 1872.449219 331.621094 1884.808594 319.351562 1897.800781 C 357.179688 1689.929688 478.289062 1498.46875 649.859375 1375.140625 Z M 689.671875 2302.859375 C 602.21875 2249.308594 532.050781 2172.628906 488.488281 2082.808594 C 444.898438 1993.019531 428.101562 1890.421875 440.730469 1791.421875 C 434.039062 1973.191406 534.628906 2159.941406 687.871094 2258.730469 C 687.988281 2273.671875 688.589844 2288.308594 689.671875 2302.859375 "/>
</svg>
