<?xml version="1.0" encoding="UTF-8"?>
<svg xmlns="http://www.w3.org/2000/svg" xmlns:xlink="http://www.w3.org/1999/xlink" width="2880" height="1920" viewBox="0 0 2880 1920">
<path fill-rule="evenodd" fill="rgb(0%, 0%, 0%)" fill-opacity="1" d="M 1440 187.390625 C 1461.449219 186.738281 1588.199219 183.148438 1671.488281 185.949219 C 1671.488281 185.949219 1869.308594 68.640625 2103.941406 79.371094 C 2103.941406 79.371094 2131.539062 261.089844 2052.570312 409.070312 C 2052.570312 409.070312 2178.308594 525.621094 2206.679688 613.03125 C 2206.679688 613.03125 2189.808594 596.160156 2151.480469 580.058594 C 2151.480469 580.058594 2265.71875 732.640625 2294.859375 872.960938 C 2294.859375 872.960938 2258.050781 804.71875 2184.449219 767.140625 C 2184.449219 767.140625 2267.25 926.628906 2237.351562 1045.472656 C 2237.351562 1045.472656 2212.050781 965.730469 2173.710938 940.429688 C 2173.710938 940.429688 2153.011719 1036.273438 2165.28125 1114.480469 C 2165.28125 1114.480469 2133.839844 1073.078125 2127.710938 1021.703125 C 2127.710938 1021.703125 2101.640625 1125.214844 2117.738281 1188.089844 C 2117.738281 1188.089844 2084 1145.917969 2080.171875 1086.878906 C 2080.171875 1086.878906 2035.699219 1145.917969 2028.03125 1239.460938 C 2028.03125 1239.460938 2011.160156 1185.789062 2023.429688 1138.25 C 2023.429688 1138.25 2002.730469 1180.421875 1966.691406 1217.992188 C 1930.648438 1255.5625 1912.25 1273.964844 1902.28125 1316.902344 C 1902.28125 1316.902344 1897.679688 1273.964844 1921.449219 1237.160156 C 1921.449219 1237.160156 1920.839844 1237.542969 1919.71875 1238.300781 C 1868.96875 1289.386719 1846.320312 1405.476562 1846.320312 1405.476562 C 1824.449219 1375.652344 1820.871094 1357.359375 1820.871094 1357.359375 C 1820.871094 1357.359375 1793.828125 1381.617188 1751.679688 1456.378906 C 1709.53125 1531.140625 1715.890625 1571.703125 1715.890625 1571.703125 C 1702.769531 1551.023438 1698.789062 1521.597656 1698.789062 1521.597656 C 1687.648438 1545.058594 1679.699219 1617.035156 1676.921875 1676.289062 C 1674.128906 1735.539062 1637.148438 1774.511719 1637.148438 1774.511719 C 1648.289062 1754.628906 1642.71875 1741.109375 1642.71875 1741.109375 C 1637.550781 1755.820312 1628.398438 1763.378906 1628.398438 1763.378906 C 1592.660156 1818.847656 1457.941406 1838.769531 1440.890625 1841.085938 L 1440.890625 1841.320312 C 1440.738281 1841.300781 1440.601562 1841.28125 1440.449219 1841.265625 L 1439.550781 1841.265625 C 1439.398438 1841.28125 1439.261719 1841.300781 1439.109375 1841.320312 L 1439.109375 1841.085938 C 1422.058594 1838.769531 1287.339844 1818.847656 1251.601562 1763.378906 C 1251.601562 1763.378906 1242.449219 1755.820312 1237.28125 1741.109375 C 1237.28125 1741.109375 1231.710938 1754.628906 1242.851562 1774.511719 C 1242.851562 1774.511719 1205.871094 1735.539062 1203.078125 1676.289062 C 1200.300781 1617.035156 1192.351562 1545.058594 1181.210938 1521.597656 C 1181.210938 1521.597656 1177.238281 1551.023438 1164.109375 1571.703125 C 1164.109375 1571.703125 1170.480469 1531.140625 1128.320312 1456.378906 C 1086.171875 1381.617188 1059.128906 1357.359375 1059.128906 1357.359375 C 1059.128906 1357.359375 1055.550781 1375.652344 1033.679688 1405.476562 C 1033.679688 1405.476562 1011.03125 1289.386719 960.277344 1238.300781 C 959.160156 1237.542969 958.546875 1237.160156 958.546875 1237.160156 C 982.316406 1273.964844 977.71875 1316.902344 977.71875 1316.902344 C 967.75 1273.964844 949.347656 1255.5625 913.308594 1217.992188 C 877.273438 1180.421875 856.570312 1138.25 856.570312 1138.25 C 868.839844 1185.789062 851.96875 1239.460938 851.96875 1239.460938 C 844.304688 1145.917969 799.832031 1086.878906 799.832031 1086.878906 C 795.996094 1145.917969 762.261719 1188.089844 762.261719 1188.089844 C 778.363281 1125.214844 752.292969 1021.703125 752.292969 1021.703125 C 746.160156 1073.078125 714.722656 1114.480469 714.722656 1114.480469 C 726.992188 1036.273438 706.289062 940.429688 706.289062 940.429688 C 667.949219 965.730469 642.648438 1045.472656 642.648438 1045.472656 C 612.746094 926.628906 695.554688 767.140625 695.554688 767.140625 C 621.945312 804.71875 585.144531 872.960938 585.144531 872.960938 C 614.277344 732.640625 728.523438 580.058594 728.523438 580.058594 C 690.1875 596.160156 673.320312 613.03125 673.320312 613.03125 C 701.6875 525.621094 827.433594 409.070312 827.433594 409.070312 C 748.460938 261.089844 776.0625 79.371094 776.0625 79.371094 C 1010.691406 68.640625 1208.511719 185.949219 1208.511719 185.949219 C 1291.800781 183.148438 1418.550781 186.738281 1440 187.390625 Z M 2029.191406 155.539062 C 1997.078125 160.800781 1941.570312 174.128906 1885.421875 207.421875 C 1885.421875 207.421875 1919.921875 162.179688 1972.058594 144.550781 C 1972.058594 144.550781 1883.878906 164.480469 1812.570312 202.820312 C 1741.269531 241.160156 1682.230469 235.019531 1682.230469 235.019531 C 1682.230469 235.019531 1609.390625 238.859375 1556.480469 238.089844 L 1610.148438 220.449219 L 1440 216.671875 L 1269.851562 220.449219 L 1323.519531 238.089844 C 1270.609375 238.859375 1197.769531 235.019531 1197.769531 235.019531 C 1197.769531 235.019531 1138.730469 241.160156 1067.429688 202.820312 C 996.117188 164.480469 907.941406 144.550781 907.941406 144.550781 C 960.082031 162.179688 994.585938 207.421875 994.585938 207.421875 C 938.433594 174.128906 882.921875 160.800781 850.808594 155.539062 C 894.058594 186.441406 970.390625 257.539062 974.226562 376.46875 C 974.226562 376.46875 1036.859375 335.308594 1116.789062 350.21875 C 1116.789062 350.21875 1064.898438 346.640625 1027.910156 374.078125 C 1027.910156 374.078125 1119.179688 321.589844 1249.210938 421.800781 C 1249.210938 421.800781 1136.480469 381.238281 1010.019531 466.539062 C 1010.019531 466.539062 1037.460938 430.75 1098.898438 406.890625 C 1098.898438 406.890625 1008.230469 416.429688 927.105469 493.378906 C 927.105469 493.378906 950.367188 455.800781 990.332031 424.191406 C 990.332031 424.191406 881.027344 435.949219 770.824219 538.578125 C 806.027344 529.210938 853.503906 524.851562 853.503906 524.851562 C 692.488281 615.328125 662.585938 761.78125 662.585938 761.78125 C 731.589844 696.601562 846.601562 670.539062 846.601562 670.539062 C 667.949219 784.78125 663.351562 944.261719 663.351562 944.261719 C 698.621094 836.148438 807.5 763.308594 807.5 763.308594 C 723.15625 872.191406 731.589844 994.867188 731.589844 994.867188 C 736.957031 918.191406 825.132812 860.691406 825.132812 860.691406 C 748.460938 956.53125 793.699219 1049.308594 793.699219 1049.308594 C 802.132812 992.566406 839.703125 942.730469 839.703125 942.730469 C 826.667969 1073.84375 876.507812 1113.714844 876.507812 1113.714844 C 859.636719 1066.175781 893.375 1008.671875 893.375 1008.671875 C 868.839844 1116.78125 943.214844 1166.621094 1011.449219 1199.589844 C 1079.691406 1232.558594 1101.160156 1303.101562 1101.160156 1303.101562 C 1060.53125 1243.292969 1016.820312 1237.925781 1016.820312 1237.925781 C 1096.558594 1306.933594 1155.601562 1424.246094 1155.601562 1424.246094 L 1157.140625 1410.445312 C 1256.808594 1543.859375 1229.210938 1680.339844 1229.210938 1680.339844 L 1239.179688 1670.371094 C 1249.96875 1708.359375 1270.789062 1734.925781 1295.140625 1753.496094 C 1316.78125 1761.890625 1339.800781 1765.484375 1349.148438 1766.6875 C 1350.570312 1766.894531 1352.011719 1767.0625 1353.46875 1767.183594 C 1353.46875 1767.183594 1351.898438 1767.039062 1349.148438 1766.6875 C 1305.390625 1760.226562 1281.730469 1713.917969 1281.730469 1713.917969 C 1281.730469 1713.917969 1308.371094 1752.269531 1352.050781 1756.53125 C 1387.691406 1760.007812 1425.230469 1734.636719 1437.828125 1725.183594 L 1437.75 1721.730469 C 1437.75 1721.730469 1438.539062 1722.390625 1440 1723.527344 C 1441.460938 1722.390625 1442.25 1721.730469 1442.25 1721.730469 L 1442.171875 1725.183594 C 1454.769531 1734.636719 1492.308594 1760.007812 1527.949219 1756.53125 C 1571.628906 1752.269531 1598.269531 1713.917969 1598.269531 1713.917969 C 1598.269531 1713.917969 1574.609375 1760.226562 1530.851562 1766.6875 C 1528.101562 1767.039062 1526.53125 1767.183594 1526.53125 1767.183594 C 1527.988281 1767.0625 1529.429688 1766.894531 1530.851562 1766.6875 C 1540.191406 1765.484375 1563.21875 1761.890625 1584.859375 1753.496094 C 1609.210938 1734.925781 1630.03125 1708.359375 1640.820312 1670.371094 L 1650.789062 1680.339844 C 1650.789062 1680.339844 1623.191406 1543.859375 1722.871094 1410.445312 L 1724.398438 1424.246094 C 1724.398438 1424.246094 1783.441406 1306.933594 1863.179688 1237.925781 C 1863.179688 1237.925781 1819.480469 1243.292969 1778.839844 1303.101562 C 1778.839844 1303.101562 1800.308594 1232.558594 1868.550781 1199.589844 C 1936.789062 1166.621094 2011.160156 1116.78125 1986.628906 1008.671875 C 1986.628906 1008.671875 2020.359375 1066.175781 2003.488281 1113.714844 C 2003.488281 1113.714844 2053.328125 1073.84375 2040.300781 942.730469 C 2040.300781 942.730469 2077.871094 992.566406 2086.300781 1049.308594 C 2086.300781 1049.308594 2131.539062 956.53125 2054.871094 860.691406 C 2054.871094 860.691406 2143.039062 918.191406 2148.410156 994.867188 C 2148.410156 994.867188 2156.839844 872.191406 2072.5 763.308594 C 2072.5 763.308594 2181.378906 836.148438 2216.648438 944.261719 C 2216.648438 944.261719 2212.050781 784.78125 2033.398438 670.539062 C 2033.398438 670.539062 2148.410156 696.601562 2217.421875 761.78125 C 2217.421875 761.78125 2187.511719 615.328125 2026.5 524.851562 C 2026.5 524.851562 2073.96875 529.210938 2109.179688 538.578125 C 1998.96875 435.949219 1889.671875 424.191406 1889.671875 424.191406 C 1929.628906 455.800781 1952.890625 493.378906 1952.890625 493.378906 C 1871.769531 416.429688 1781.101562 406.890625 1781.101562 406.890625 C 1842.539062 430.75 1869.980469 466.539062 1869.980469 466.539062 C 1743.519531 381.238281 1630.789062 421.800781 1630.789062 421.800781 C 1760.820312 321.589844 1852.089844 374.078125 1852.089844 374.078125 C 1815.101562 346.640625 1763.210938 350.21875 1763.210938 350.21875 C 1843.140625 335.308594 1905.769531 376.46875 1905.769531 376.46875 C 1909.609375 257.539062 1985.941406 186.441406 2029.191406 155.539062 Z M 1586.550781 1166.542969 C 1624.558594 1145.65625 1690.398438 1094.613281 1703.988281 987.304688 C 1703.988281 987.304688 1678.519531 1053.523438 1632.679688 1077.976562 C 1632.679688 1077.976562 1727.421875 986.285156 1673.429688 895.609375 C 1619.429688 804.941406 1529.78125 897.648438 1529.78125 897.648438 C 1529.78125 897.648438 1574.609375 799.851562 1632.679688 806.980469 C 1632.679688 806.980469 1580.71875 775.398438 1534.871094 816.148438 C 1534.871094 816.148438 1552.191406 769.289062 1616.378906 771.320312 C 1616.378906 771.320312 1575.628906 747.890625 1517.558594 763.171875 C 1517.558594 763.171875 1619.429688 733.628906 1679.539062 677.601562 C 1739.648438 621.570312 1817.070312 518.671875 1989.238281 580.808594 C 1989.238281 580.808594 1851.710938 537.011719 1759 655.191406 C 1759 655.191406 1856.808594 643.980469 1904.691406 695.941406 C 1904.691406 695.941406 1878.199219 682.691406 1846.621094 722.421875 C 1815.039062 762.160156 1735.570312 817.171875 1656.109375 790.679688 C 1656.109375 790.679688 1678.519531 846.710938 1754.929688 881.351562 C 1831.339844 915.988281 1906.730469 1009.71875 1828.28125 1123.820312 C 1828.28125 1123.820312 1841.519531 1060.65625 1787.53125 999.53125 C 1787.53125 999.53125 1795.679688 1127.894531 1727.421875 1214.488281 C 1689.410156 1262.714844 1664.671875 1294.824219 1646.691406 1325.074219 C 1642.070312 1346.222656 1636.78125 1370.316406 1631.980469 1391.941406 C 1619.929688 1446.148438 1600.140625 1578.222656 1570.890625 1599.734375 C 1570.890625 1599.734375 1617.351562 1587.257812 1634.988281 1527.457031 C 1634.988281 1527.457031 1620.359375 1640.171875 1471.941406 1658.242188 C 1471.941406 1658.242188 1514.101562 1665.984375 1538.621094 1659.53125 C 1538.621094 1659.53125 1489.929688 1677.738281 1440 1670.042969 C 1390.070312 1677.738281 1341.378906 1659.53125 1341.378906 1659.53125 C 1365.898438 1665.984375 1408.058594 1658.242188 1408.058594 1658.242188 C 1259.640625 1640.171875 1245.011719 1527.457031 1245.011719 1527.457031 C 1262.648438 1587.257812 1309.109375 1599.734375 1309.109375 1599.734375 C 1279.859375 1578.222656 1260.070312 1446.148438 1248.019531 1391.941406 C 1243.21875 1370.316406 1237.929688 1346.222656 1233.308594 1325.074219 C 1215.328125 1294.824219 1190.589844 1262.714844 1152.578125 1214.488281 C 1084.320312 1127.894531 1092.46875 999.53125 1092.46875 999.53125 C 1038.480469 1060.65625 1051.71875 1123.820312 1051.71875 1123.820312 C 973.273438 1009.71875 1048.660156 915.988281 1125.070312 881.351562 C 1201.480469 846.710938 1223.890625 790.679688 1223.890625 790.679688 C 1144.429688 817.171875 1064.960938 762.160156 1033.378906 722.421875 C 1001.800781 682.691406 975.3125 695.941406 975.3125 695.941406 C 1023.191406 643.980469 1121 655.191406 1121 655.191406 C 1028.289062 537.011719 890.753906 580.808594 890.753906 580.808594 C 1062.929688 518.671875 1140.351562 621.570312 1200.460938 677.601562 C 1260.570312 733.628906 1362.441406 763.171875 1362.441406 763.171875 C 1304.378906 747.890625 1263.628906 771.320312 1263.628906 771.320312 C 1327.808594 769.289062 1345.128906 816.148438 1345.128906 816.148438 C 1299.28125 775.398438 1247.328125 806.980469 1247.328125 806.980469 C 1305.390625 799.851562 1350.21875 897.648438 1350.21875 897.648438 C 1350.21875 897.648438 1260.570312 804.941406 1206.570312 895.609375 C 1152.578125 986.285156 1247.328125 1077.976562 1247.328125 1077.976562 C 1201.480469 1053.523438 1176.011719 987.304688 1176.011719 987.304688 C 1189.601562 1094.613281 1255.441406 1145.65625 1293.449219 1166.542969 C 1308.101562 1172.765625 1327.511719 1180.789062 1336.949219 1183.785156 C 1353.21875 1188.953125 1404.378906 1206.003906 1404.378906 1187.921875 C 1404.378906 1169.835938 1360.460938 1141.671875 1338.238281 1126.171875 C 1316.019531 1110.667969 1290.441406 1088.449219 1290.441406 1088.449219 C 1290.441406 1088.449219 1307.488281 1099.042969 1337.460938 1109.636719 C 1367.429688 1120.226562 1395.851562 1152.523438 1408.511719 1154.589844 C 1416.378906 1155.875 1421.75 1145.1875 1424.691406 1136.910156 C 1413.898438 1133.121094 1404.511719 1125.210938 1395.128906 1114.785156 C 1381.148438 1099.25 1353.191406 1079.679688 1332.371094 1068.492188 C 1311.558594 1057.308594 1294.160156 1052.960938 1310 1005.425781 C 1324.339844 962.398438 1421.671875 965.191406 1440 966.109375 C 1458.328125 965.191406 1555.660156 962.398438 1570 1005.425781 C 1585.839844 1052.960938 1568.441406 1057.308594 1547.628906 1068.492188 C 1526.808594 1079.679688 1498.851562 1099.25 1484.871094 1114.785156 C 1475.488281 1125.210938 1466.101562 1133.121094 1455.308594 1136.910156 C 1458.25 1145.1875 1463.621094 1155.875 1471.488281 1154.589844 C 1484.148438 1152.523438 1512.570312 1120.226562 1542.539062 1109.636719 C 1572.511719 1099.042969 1589.558594 1088.449219 1589.558594 1088.449219 C 1589.558594 1088.449219 1563.980469 1110.667969 1541.761719 1126.171875 C 1519.539062 1141.671875 1475.621094 1169.835938 1475.621094 1187.921875 C 1475.621094 1206.003906 1526.78125 1188.953125 1543.050781 1183.785156 C 1552.488281 1180.789062 1571.898438 1172.765625 1586.550781 1166.542969 Z M 1248.449219 1614.628906 C 1248.449219 1614.628906 1252.628906 1537.085938 1218.03125 1473.855469 C 1183.429688 1410.628906 1153.011719 1378.414062 1153.011719 1378.414062 C 1153.011719 1378.414062 1234.140625 1496.734375 1248.449219 1614.628906 Z M 1631.550781 1614.628906 C 1631.550781 1614.628906 1627.371094 1537.085938 1661.96875 1473.855469 C 1696.570312 1410.628906 1726.988281 1378.414062 1726.988281 1378.414062 C 1726.988281 1378.414062 1645.859375 1496.734375 1631.550781 1614.628906 Z M 1405.5 1576.65625 C 1405.5 1576.65625 1399.339844 1553.910156 1392.140625 1546.328125 C 1392.140625 1546.328125 1381.050781 1565.378906 1381.710938 1577.601562 C 1381.710938 1577.601562 1401.328125 1577.601562 1405.5 1576.65625 Z M 1474.5 1576.65625 C 1474.5 1576.65625 1480.660156 1553.910156 1487.859375 1546.328125 C 1487.859375 1546.328125 1498.949219 1565.378906 1498.289062 1577.601562 C 1498.289062 1577.601562 1478.671875 1577.601562 1474.5 1576.65625 Z M 1434.589844 1576.371094 C 1434.589844 1576.371094 1430.230469 1557.984375 1423.320312 1548.316406 C 1423.320312 1548.316406 1416.488281 1563.953125 1416.488281 1575.707031 C 1416.488281 1575.707031 1426.539062 1578.550781 1434.589844 1576.371094 Z M 1445.410156 1576.371094 C 1445.410156 1576.371094 1449.769531 1557.984375 1456.679688 1548.316406 C 1456.679688 1548.316406 1463.511719 1563.953125 1463.511719 1575.707031 C 1463.511719 1575.707031 1453.460938 1578.550781 1445.410156 1576.371094 Z M 1330.25 1563.890625 L 1329.390625 1552.488281 C 1329.390625 1552.488281 1340.199219 1570.777344 1346.359375 1571.441406 C 1346.359375 1571.441406 1334.421875 1548.222656 1332.238281 1533.910156 C 1332.238281 1533.910156 1351.761719 1569.832031 1356.308594 1571.253906 C 1360.859375 1572.675781 1366.261719 1571.726562 1366.261719 1571.726562 C 1366.261719 1571.726562 1358.78125 1563.007812 1352.519531 1549.550781 C 1346.269531 1536.09375 1328.160156 1504.058594 1326.269531 1493.726562 C 1326.269531 1493.726562 1319.058594 1515.527344 1323.328125 1535.050781 C 1324.339844 1539.667969 1325.300781 1544.289062 1326.179688 1548.652344 C 1327.578125 1553.589844 1328.988281 1558.808594 1330.25 1563.890625 Z M 1553.820312 1548.652344 C 1554.699219 1544.289062 1555.660156 1539.667969 1556.671875 1535.050781 C 1560.941406 1515.527344 1553.730469 1493.726562 1553.730469 1493.726562 C 1551.839844 1504.058594 1533.738281 1536.09375 1527.480469 1549.550781 C 1521.230469 1563.007812 1513.738281 1571.726562 1513.738281 1571.726562 C 1513.738281 1571.726562 1519.140625 1572.675781 1523.691406 1571.253906 C 1528.238281 1569.832031 1547.761719 1533.910156 1547.761719 1533.910156 C 1545.578125 1548.222656 1533.640625 1571.441406 1533.640625 1571.441406 C 1539.800781 1570.777344 1550.609375 1552.488281 1550.609375 1552.488281 L 1549.75 1563.890625 C 1551.011719 1558.808594 1552.421875 1553.589844 1553.820312 1548.652344 Z M 1550.570312 1472.195312 C 1545.121094 1460.828125 1530.761719 1428.050781 1530.761719 1398.632812 C 1530.761719 1362.339844 1535.410156 1335.351562 1535.410156 1335.351562 C 1510.28125 1383.742188 1522.851562 1431.203125 1529.828125 1454.9375 C 1536.808594 1478.667969 1532.148438 1494.488281 1532.148438 1494.488281 C 1526.570312 1452.144531 1450.71875 1424.226562 1450.71875 1424.226562 C 1479.109375 1425.15625 1518.191406 1446.09375 1518.191406 1446.09375 C 1497.488281 1422.859375 1448.789062 1410.746094 1440 1408.714844 C 1431.210938 1410.746094 1382.511719 1422.859375 1361.808594 1446.09375 C 1361.808594 1446.09375 1400.890625 1425.15625 1429.28125 1424.226562 C 1429.28125 1424.226562 1353.429688 1452.144531 1347.851562 1494.488281 C 1347.851562 1494.488281 1343.191406 1478.667969 1350.171875 1454.9375 C 1357.148438 1431.203125 1369.71875 1383.742188 1344.589844 1335.351562 C 1344.589844 1335.351562 1349.238281 1362.339844 1349.238281 1398.632812 C 1349.238281 1428.050781 1334.878906 1460.828125 1329.429688 1472.195312 C 1335.808594 1491.9375 1346.730469 1515.253906 1354.511719 1531.355469 C 1364.859375 1552.773438 1374.371094 1565.679688 1374.371094 1565.679688 C 1375.210938 1550.503906 1389.539062 1529.515625 1389.539062 1529.515625 C 1403.011719 1538.730469 1409.679688 1562.414062 1409.679688 1562.414062 C 1412.371094 1545.824219 1420.601562 1533.769531 1420.601562 1533.769531 C 1431.480469 1540.957031 1437.371094 1559.730469 1440 1570.839844 C 1442.628906 1559.730469 1448.519531 1540.957031 1459.398438 1533.769531 C 1459.398438 1533.769531 1467.628906 1545.824219 1470.320312 1562.414062 C 1470.320312 1562.414062 1476.988281 1538.730469 1490.460938 1529.515625 C 1490.460938 1529.515625 1504.789062 1550.503906 1505.640625 1565.679688 C 1505.640625 1565.679688 1515.140625 1552.773438 1525.488281 1531.355469 C 1533.28125 1515.253906 1544.191406 1491.9375 1550.570312 1472.195312 Z M 1790.851562 1125.457031 C 1790.851562 1125.457031 1761.539062 1227.003906 1709.75 1273.34375 C 1657.949219 1319.6875 1655.230469 1336.042969 1642.28125 1400.789062 C 1629.328125 1465.53125 1610.929688 1535.046875 1610.929688 1535.046875 C 1610.929688 1535.046875 1655.230469 1419.1875 1666.128906 1377.617188 C 1677.039062 1336.042969 1726.789062 1301.96875 1761.539062 1227.683594 C 1796.300781 1153.398438 1790.851562 1125.457031 1790.851562 1125.457031 Z M 1089.148438 1125.457031 C 1089.148438 1125.457031 1118.460938 1227.003906 1170.25 1273.34375 C 1222.050781 1319.6875 1224.769531 1336.042969 1237.71875 1400.789062 C 1250.671875 1465.53125 1269.070312 1535.046875 1269.070312 1535.046875 C 1269.070312 1535.046875 1224.769531 1419.1875 1213.871094 1377.617188 C 1202.960938 1336.042969 1153.210938 1301.96875 1118.460938 1227.683594 C 1083.699219 1153.398438 1089.148438 1125.457031 1089.148438 1125.457031 Z M 1201.75 1387.5625 C 1192.871094 1364.144531 1177.511719 1331.695312 1152.601562 1300.753906 C 1095.929688 1230.367188 1035.089844 1204.121094 980.214844 1159.382812 C 925.335938 1114.644531 964.109375 1046.050781 964.109375 1046.050781 C 955.757812 1114.648438 1049.410156 1200.542969 1113.828125 1245.28125 C 1157.460938 1275.578125 1187.140625 1345.558594 1201.75 1387.5625 C 1209.410156 1407.765625 1212.25 1421.246094 1212.25 1421.246094 C 1212.25 1421.246094 1208.710938 1407.582031 1201.75 1387.5625 Z M 1678.25 1387.5625 C 1692.859375 1345.558594 1722.539062 1275.578125 1766.171875 1245.28125 C 1830.589844 1200.542969 1924.238281 1114.648438 1915.890625 1046.050781 C 1915.890625 1046.050781 1954.671875 1114.644531 1899.789062 1159.382812 C 1844.910156 1204.121094 1784.070312 1230.367188 1727.398438 1300.753906 C 1702.488281 1331.695312 1687.128906 1364.144531 1678.25 1387.5625 C 1671.289062 1407.582031 1667.75 1421.246094 1667.75 1421.246094 C 1667.75 1421.246094 1670.589844 1407.765625 1678.25 1387.5625 Z M 1552.929688 1258.535156 C 1552.929688 1258.535156 1563.191406 1299.390625 1565.179688 1325.523438 C 1567.160156 1351.660156 1566.988281 1366.878906 1566.988281 1366.878906 C 1566.988281 1366.878906 1583.210938 1339.585938 1588.328125 1315.433594 C 1593.460938 1291.285156 1591.96875 1247.78125 1591.96875 1247.78125 C 1591.96875 1247.78125 1590.480469 1276.5625 1583.539062 1297.238281 C 1583.539062 1297.238281 1580.058594 1260.519531 1574.269531 1257.871094 C 1568.480469 1255.226562 1552.929688 1258.535156 1552.929688 1258.535156 Z M 1327.070312 1258.535156 C 1327.070312 1258.535156 1316.808594 1299.390625 1314.828125 1325.523438 C 1312.839844 1351.660156 1313.011719 1366.878906 1313.011719 1366.878906 C 1313.011719 1366.878906 1296.789062 1339.585938 1291.671875 1315.433594 C 1286.539062 1291.285156 1288.03125 1247.78125 1288.03125 1247.78125 C 1288.03125 1247.78125 1289.519531 1276.5625 1296.460938 1297.238281 C 1296.460938 1297.238281 1299.941406 1260.519531 1305.730469 1257.871094 C 1311.519531 1255.226562 1327.070312 1258.535156 1327.070312 1258.535156 Z M 1403.820312 1258.699219 C 1403.820312 1258.699219 1400.671875 1276.5625 1392.070312 1286.984375 C 1392.070312 1286.984375 1380 1276.730469 1379.339844 1257.375 C 1379.339844 1257.375 1395.210938 1257.871094 1403.820312 1258.699219 Z M 1476.179688 1258.699219 C 1476.179688 1258.699219 1479.328125 1276.5625 1487.929688 1286.984375 C 1487.929688 1286.984375 1500 1276.730469 1500.671875 1257.375 C 1500.671875 1257.375 1484.789062 1257.871094 1476.179688 1258.699219 Z M 1525.109375 1286.300781 C 1526.378906 1284.414062 1536.820312 1268.460938 1535.730469 1253.238281 C 1535.730469 1253.238281 1522.660156 1255.722656 1513.238281 1256.550781 C 1513.238281 1256.550781 1515.640625 1273.519531 1524.539062 1285.878906 Z M 1355.460938 1285.878906 C 1364.359375 1273.519531 1366.761719 1256.550781 1366.761719 1256.550781 C 1357.339844 1255.722656 1344.269531 1253.238281 1344.269531 1253.238281 C 1343.179688 1268.460938 1353.621094 1284.414062 1354.890625 1286.300781 Z M 1444.429688 1259.527344 C 1444.429688 1259.527344 1445.75 1271.4375 1454.679688 1281.195312 C 1454.679688 1281.195312 1463.609375 1270.9375 1464.609375 1259.527344 C 1464.609375 1259.527344 1448.730469 1260.351562 1444.429688 1259.527344 Z M 1435.578125 1259.527344 C 1435.578125 1259.527344 1434.25 1271.4375 1425.320312 1281.195312 C 1425.320312 1281.195312 1416.390625 1270.9375 1415.390625 1259.527344 C 1415.390625 1259.527344 1431.28125 1260.351562 1435.578125 1259.527344 Z M 1281.578125 1163.914062 C 1219.828125 1136.058594 1182.121094 1098.351562 1182.121094 1098.351562 C 1199.671875 1134.300781 1228.328125 1160.34375 1260.429688 1179.207031 C 1267.210938 1181.480469 1274.71875 1183.898438 1282.171875 1186.109375 C 1305.679688 1193.085938 1349.609375 1203.9375 1332.289062 1197.480469 C 1319.429688 1192.679688 1293.859375 1173.464844 1281.578125 1163.914062 Z M 1619.570312 1179.207031 C 1651.671875 1160.34375 1680.328125 1134.300781 1697.878906 1098.351562 C 1697.878906 1098.351562 1660.171875 1136.058594 1598.421875 1163.914062 C 1586.140625 1173.464844 1560.570312 1192.679688 1547.710938 1197.480469 C 1530.390625 1203.9375 1574.320312 1193.085938 1597.828125 1186.109375 C 1605.28125 1183.898438 1612.789062 1181.480469 1619.570312 1179.207031 Z M 1654.941406 1196.191406 C 1654.941406 1196.191406 1687.550781 1157.578125 1711.960938 1103.660156 C 1736.371094 1049.742188 1752.578125 980.519531 1719.761719 919.300781 C 1719.761719 919.300781 1819.800781 1056.144531 1654.941406 1196.191406 Z M 1220.050781 1196.191406 C 1220.050781 1196.191406 1187.441406 1157.578125 1163.03125 1103.660156 C 1138.621094 1049.742188 1122.421875 980.519531 1155.230469 919.300781 C 1155.230469 919.300781 1055.191406 1056.144531 1220.050781 1196.191406 Z M 1914.699219 935.101562 C 1914.699219 935.101562 1929.609375 954.488281 1940.570312 986.175781 C 1951.53125 1017.863281 1958.539062 1061.855469 1942.738281 1111.066406 C 1942.738281 1111.066406 2007.75 1025.171875 1914.699219 935.101562 Z M 965.300781 935.101562 C 965.300781 935.101562 950.386719 954.488281 939.425781 986.175781 C 928.46875 1017.863281 921.457031 1061.855469 937.265625 1111.066406 C 937.265625 1111.066406 872.246094 1025.171875 965.300781 935.101562 Z M 1441.730469 1086.683594 C 1449.988281 1087.5625 1471.488281 1088.269531 1488.910156 1075.019531 C 1510.96875 1058.242188 1531.480469 1024.066406 1559.128906 1030.902344 C 1559.128906 1030.902344 1563.160156 985.542969 1521.21875 982.125 C 1480.511719 978.808594 1452.96875 983.6875 1440.601562 1001.308594 L 1440.488281 1002.941406 C 1440.328125 1002.6875 1440.171875 1002.433594 1440 1002.183594 C 1439.828125 1002.433594 1439.671875 1002.6875 1439.519531 1002.941406 L 1439.398438 1001.308594 C 1427.03125 983.6875 1399.488281 978.808594 1358.78125 982.125 C 1316.839844 985.542969 1320.878906 1030.902344 1320.878906 1030.902344 C 1348.53125 1024.066406 1369.03125 1058.242188 1391.089844 1075.019531 C 1408.511719 1088.269531 1430.011719 1087.5625 1438.269531 1086.683594 L 1438.269531 1086.203125 C 1438.269531 1086.203125 1438.890625 1086.320312 1440 1086.472656 C 1441.121094 1086.320312 1441.730469 1086.203125 1441.730469 1086.203125 Z M 1442.339844 1022.257812 C 1447.671875 1022.769531 1456.96875 1022.917969 1467.171875 1019.71875 C 1483.011719 1014.746094 1524.640625 1004.804688 1547.941406 1021.582031 C 1547.941406 1021.582031 1514.699219 1025.929688 1497.300781 1047.988281 C 1480.308594 1069.53125 1459.761719 1077.738281 1440 1077.53125 C 1420.238281 1077.738281 1399.691406 1069.53125 1382.699219 1047.988281 C 1365.300781 1025.929688 1332.058594 1021.582031 1332.058594 1021.582031 C 1355.359375 1004.804688 1396.988281 1014.746094 1412.839844 1019.71875 C 1423.03125 1022.917969 1432.328125 1022.769531 1437.660156 1022.257812 L 1437.648438 1021.582031 C 1437.648438 1021.582031 1438.488281 1021.773438 1440 1021.984375 C 1441.511719 1021.773438 1442.351562 1021.582031 1442.351562 1021.582031 Z M 1520.550781 921.359375 C 1520.550781 921.359375 1613.289062 883.101562 1642.101562 915.511719 C 1670.910156 947.921875 1664.609375 1017.246094 1611.941406 1076.21875 C 1611.941406 1076.21875 1663.261719 1006.441406 1626.339844 949.722656 C 1589.429688 893 1520.550781 921.359375 1520.550781 921.359375 Z M 1359.449219 921.359375 C 1359.449219 921.359375 1266.710938 883.101562 1237.898438 915.511719 C 1209.089844 947.921875 1215.390625 1017.246094 1268.058594 1076.21875 C 1268.058594 1076.21875 1216.738281 1006.441406 1253.660156 949.722656 C 1290.570312 893 1359.449219 921.359375 1359.449219 921.359375 Z M 882.671875 961.96875 C 882.671875 961.96875 874.917969 976.132812 868.65625 996.863281 C 862.390625 1017.589844 857.621094 1044.878906 863.585938 1071.125 C 863.585938 1071.125 823.621094 1011.476562 882.671875 961.96875 Z M 1997.328125 961.96875 C 1997.328125 961.96875 2005.078125 976.132812 2011.339844 996.863281 C 2017.609375 1017.589844 2022.378906 1044.878906 2016.421875 1071.125 C 2016.421875 1071.125 2056.378906 1011.476562 1997.328125 961.96875 Z M 905.9375 846.839844 C 905.9375 846.839844 880.4375 863.539062 853.59375 890.460938 C 826.75 917.378906 798.566406 954.511719 793.199219 995.371094 C 793.199219 995.371094 784.847656 871.300781 905.9375 846.839844 Z M 1974.058594 846.839844 C 1974.058594 846.839844 1999.558594 863.539062 2026.410156 890.460938 C 2053.25 917.378906 2081.429688 954.511719 2086.800781 995.371094 C 2086.800781 995.371094 2095.148438 871.300781 1974.058594 846.839844 Z M 1189.621094 808.671875 C 1189.621094 808.671875 1157.441406 838.480469 1132.839844 851.71875 C 1108.238281 864.96875 991.382812 873.011719 1008.890625 977.570312 C 1008.890625 977.570312 979.082031 922.21875 1016.929688 879.160156 C 1016.929688 879.160156 931.300781 869.230469 892.503906 943.035156 C 892.503906 943.035156 905.277344 860.710938 984.761719 814.820312 C 984.761719 814.820312 906.222656 775.078125 826.269531 818.128906 C 826.269531 818.128906 859.386719 764.199219 938.394531 765.148438 C 1017.398438 766.089844 1061.398438 835.640625 1148.449219 815.300781 C 1148.449219 815.300781 1100.671875 854.089844 1019.300781 813.398438 C 1019.300781 813.398438 1068.96875 888.148438 1189.621094 808.671875 Z M 1690.390625 808.671875 C 1690.390625 808.671875 1722.558594 838.480469 1747.160156 851.71875 C 1771.761719 864.96875 1888.621094 873.011719 1871.109375 977.570312 C 1871.109375 977.570312 1900.921875 922.21875 1863.070312 879.160156 C 1863.070312 879.160156 1948.699219 869.230469 1987.5 943.035156 C 1987.5 943.035156 1974.71875 860.710938 1895.238281 814.820312 C 1895.238281 814.820312 1973.78125 775.078125 2053.730469 818.128906 C 2053.730469 818.128906 2020.609375 764.199219 1941.609375 765.148438 C 1862.601562 766.089844 1818.601562 835.640625 1731.550781 815.300781 C 1731.550781 815.300781 1779.328125 854.089844 1860.699219 813.398438 C 1860.699219 813.398438 1811.03125 888.148438 1690.390625 808.671875 Z M 1440.550781 271.078125 C 1457.988281 327.25 1450.449219 473.648438 1450.449219 473.648438 C 1483.980469 372.53125 1582.488281 308.078125 1582.488281 308.078125 C 1534.28125 340.570312 1490.789062 444.308594 1467.738281 489.890625 C 1444.691406 535.480469 1452.019531 648.648438 1452.019531 648.648438 C 1469.839844 596.261719 1532.191406 565.871094 1532.191406 565.871094 C 1532.191406 565.871094 1501.269531 589.96875 1469.839844 650.21875 C 1445.558594 696.75 1446.589844 772.960938 1448.320312 805.269531 C 1449.980469 808.738281 1451.960938 811.191406 1454.320312 812.148438 C 1470.429688 818.710938 1522.320312 793.660156 1522.320312 793.660156 C 1482.359375 817.519531 1468.640625 871.210938 1468.640625 871.210938 C 1496.679688 880.148438 1544.988281 844.960938 1544.988281 844.960938 C 1513.96875 899.839844 1440.601562 949.347656 1440.601562 949.347656 L 1439.398438 949.347656 C 1439.398438 949.347656 1366.03125 899.839844 1335.011719 844.960938 C 1335.011719 844.960938 1383.328125 880.148438 1411.359375 871.210938 C 1411.359375 871.210938 1397.640625 817.519531 1357.679688 793.660156 C 1357.679688 793.660156 1409.570312 818.710938 1425.679688 812.148438 C 1428.039062 811.191406 1430.03125 808.738281 1431.679688 805.269531 C 1433.410156 772.960938 1434.441406 696.75 1410.171875 650.21875 C 1378.730469 589.96875 1347.808594 565.871094 1347.808594 565.871094 C 1347.808594 565.871094 1410.171875 596.261719 1427.980469 648.648438 C 1427.980469 648.648438 1435.308594 535.480469 1412.261719 489.890625 C 1389.210938 444.308594 1345.71875 340.570312 1297.519531 308.078125 C 1297.519531 308.078125 1396.019531 372.53125 1429.550781 473.648438 C 1429.550781 473.648438 1422.011719 327.25 1439.449219 271.078125 L 1439.441406 267.738281 C 1439.628906 268.269531 1439.820312 268.800781 1440 269.359375 C 1440.179688 268.800781 1440.371094 268.269531 1440.558594 267.738281 Z M 953.371094 708.429688 C 953.371094 708.429688 921.160156 714.25 884.550781 733.710938 C 847.9375 753.171875 806.929688 786.269531 789.332031 840.851562 C 789.332031 840.851562 795.296875 703.058594 953.371094 708.429688 Z M 1926.628906 708.429688 C 1926.628906 708.429688 1958.839844 714.25 1995.449219 733.710938 C 2032.058594 753.171875 2073.070312 786.269531 2090.671875 840.851562 C 2090.671875 840.851562 2084.699219 703.058594 1926.628906 708.429688 Z M 1994.488281 676.789062 C 1994.488281 676.789062 2016.96875 685.078125 2046.441406 705.050781 C 2075.898438 725.019531 2112.359375 756.671875 2140.289062 803.378906 C 2140.289062 803.378906 2126.328125 714.328125 1994.488281 676.789062 Z M 885.511719 676.789062 C 885.511719 676.789062 863.027344 685.078125 833.5625 705.050781 C 804.097656 725.019531 767.644531 756.671875 739.707031 803.378906 C 739.707031 803.378906 753.675781 714.328125 885.511719 676.789062 Z M 1351.738281 598.78125 C 1351.738281 598.78125 1395.628906 639.050781 1411.121094 712.359375 C 1426.601562 785.671875 1425.058594 798.578125 1416.789062 802.191406 C 1408.53125 805.808594 1363.101562 783.609375 1363.101562 783.609375 C 1363.101562 783.609375 1390.761719 786.058594 1403.179688 774.53125 C 1413.261719 765.171875 1398.628906 674.199219 1351.738281 598.78125 Z M 1525.769531 598.78125 C 1525.769531 598.78125 1481.890625 639.050781 1466.398438 712.359375 C 1450.910156 785.671875 1452.460938 798.578125 1460.71875 802.191406 C 1468.980469 805.808594 1514.410156 783.609375 1514.410156 783.609375 C 1514.410156 783.609375 1486.75 786.058594 1474.328125 774.53125 C 1464.25 765.171875 1478.878906 674.199219 1525.769531 598.78125 Z M 1756.429688 801.539062 C 1756.429688 801.539062 1814.769531 788.078125 1841.699219 756.160156 C 1868.628906 724.238281 1916.011719 718.761719 1946.429688 729.230469 C 1946.429688 729.230469 1902.050781 732.21875 1872.621094 758.148438 C 1843.199219 784.089844 1810.78125 804.039062 1756.429688 801.539062 Z M 1123.570312 801.539062 C 1123.570312 801.539062 1065.230469 788.078125 1038.300781 756.160156 C 1011.371094 724.238281 963.988281 718.761719 933.570312 729.230469 C 933.570312 729.230469 977.953125 732.21875 1007.378906 758.148438 C 1036.800781 784.089844 1069.21875 804.039062 1123.570312 801.539062 Z M 1644.078125 745.039062 C 1644.078125 745.039062 1689.828125 714.300781 1726.160156 693.589844 C 1758.621094 675.078125 1786.75 703.109375 1786.75 703.109375 C 1786.75 703.109375 1786.53125 743.679688 1734.441406 761.550781 C 1684.871094 778.550781 1644.078125 745.039062 1644.078125 745.039062 Z M 1235.921875 745.039062 C 1235.921875 745.039062 1190.171875 714.300781 1153.839844 693.589844 C 1121.378906 675.078125 1093.25 703.109375 1093.25 703.109375 C 1093.25 703.109375 1093.46875 743.679688 1145.558594 761.550781 C 1195.128906 778.550781 1235.921875 745.039062 1235.921875 745.039062 Z M 1395.96875 735.871094 C 1395.96875 735.871094 1295.761719 731.101562 1231.339844 675.621094 C 1166.921875 620.148438 1097.128906 529.480469 987.96875 542.011719 C 987.96875 542.011719 1072.671875 513.378906 1139.480469 564.078125 C 1206.289062 614.78125 1281.441406 720.960938 1395.96875 735.871094 Z M 1484.03125 735.871094 C 1484.03125 735.871094 1584.238281 731.101562 1648.660156 675.621094 C 1713.078125 620.148438 1782.871094 529.480469 1892.03125 542.011719 C 1892.03125 542.011719 1807.328125 513.378906 1740.519531 564.078125 C 1673.710938 614.78125 1598.558594 720.960938 1484.03125 735.871094 Z M 884.175781 561.089844 C 884.175781 561.089844 853.457031 574.371094 814.015625 601.878906 C 774.570312 629.390625 726.402344 671.148438 691.507812 728.109375 C 691.507812 728.109375 724.910156 578.988281 884.175781 561.089844 Z M 1995.820312 561.089844 C 1995.820312 561.089844 2026.539062 574.371094 2065.988281 601.878906 C 2105.429688 629.390625 2153.601562 671.148438 2188.488281 728.109375 C 2188.488281 728.109375 2155.089844 578.988281 1995.820312 561.089844 Z M 895.390625 591.210938 C 895.390625 591.210938 1020.058594 585.839844 1084.480469 642.511719 C 1084.480469 642.511719 993.21875 644.890625 961.007812 683.660156 C 961.007812 683.660156 983.671875 643.699219 1018.269531 634.75 C 1052.871094 625.808594 963.390625 593 895.390625 591.210938 Z M 1982.121094 591.210938 C 1982.121094 591.210938 1857.449219 585.839844 1793.03125 642.511719 C 1793.03125 642.511719 1884.300781 644.890625 1916.511719 683.660156 C 1916.511719 683.660156 1893.839844 643.699219 1859.238281 634.75 C 1824.640625 625.808594 1914.121094 593 1982.121094 591.210938 Z M 1364.210938 427.429688 C 1364.210938 427.429688 1402.378906 490.058594 1410.140625 534.199219 C 1417.890625 578.339844 1416.101562 601.011719 1416.101562 601.011719 C 1416.101562 601.011719 1392.238281 572.378906 1348.699219 533.011719 C 1305.148438 493.640625 1266.980469 476.339844 1266.980469 476.339844 C 1266.980469 476.339844 1342.140625 508.550781 1363.011719 528.230469 C 1383.890625 547.921875 1398.800781 550.308594 1394.628906 531.808594 C 1390.449219 513.320312 1385.078125 465.011719 1364.210938 427.429688 Z M 1513.308594 427.429688 C 1513.308594 427.429688 1475.128906 490.058594 1467.378906 534.199219 C 1459.621094 578.339844 1461.410156 601.011719 1461.410156 601.011719 C 1461.410156 601.011719 1485.269531 572.378906 1528.808594 533.011719 C 1572.359375 493.640625 1610.53125 476.339844 1610.53125 476.339844 C 1610.53125 476.339844 1535.378906 508.550781 1514.5 528.230469 C 1493.621094 547.921875 1478.710938 550.308594 1482.878906 531.808594 C 1487.058594 513.320312 1492.429688 465.011719 1513.308594 427.429688 Z M 1676.699219 586.148438 C 1676.699219 586.148438 1696.078125 560.800781 1734.628906 540.890625 C 1773.179688 520.980469 1830.890625 506.519531 1907.539062 528.289062 C 1907.539062 528.289062 1778.699219 437.019531 1676.699219 586.148438 Z M 1203.300781 586.148438 C 1203.300781 586.148438 1183.921875 560.800781 1145.371094 540.890625 C 1106.820312 520.980469 1049.109375 506.519531 972.460938 528.289062 C 972.460938 528.289062 1101.300781 437.019531 1203.300781 586.148438 Z M 1896.480469 492.230469 C 1893.621094 491.429688 1869.839844 485.660156 1765.171875 481.148438 C 1652.488281 476.300781 1544.179688 567.609375 1544.179688 567.609375 C 1560.691406 534.089844 1609.261719 494.269531 1681.140625 473.871094 C 1757.839844 452.101562 1889.210938 490.089844 1896.480469 492.230469 C 1896.691406 492.289062 1896.789062 492.320312 1896.789062 492.320312 C 1896.789062 492.320312 1896.679688 492.289062 1896.480469 492.230469 Z M 983.523438 492.230469 C 990.796875 490.089844 1122.160156 452.101562 1198.859375 473.871094 C 1270.738281 494.269531 1319.308594 534.089844 1335.820312 567.609375 C 1335.820312 567.609375 1227.511719 476.300781 1114.828125 481.148438 C 1010.160156 485.660156 986.378906 491.429688 983.523438 492.230469 C 983.316406 492.289062 983.210938 492.320312 983.210938 492.320312 C 983.210938 492.320312 983.304688 492.289062 983.523438 492.230469 Z M 821.164062 162.550781 C 819.339844 179.039062 818.144531 216.089844 830.5 279.488281 C 835.050781 302.828125 841.996094 323.050781 849.796875 340.210938 C 830.402344 273.128906 846.648438 219.46875 846.648438 219.46875 C 903.765625 251.921875 923.53125 311.050781 930.078125 341.078125 C 944.6875 352.070312 955.140625 365.128906 955.140625 365.128906 C 955.140625 365.128906 924.253906 206.371094 821.164062 162.550781 Z M 2058.839844 162.550781 C 1955.75 206.371094 1924.859375 365.128906 1924.859375 365.128906 C 1924.859375 365.128906 1935.308594 352.070312 1949.921875 341.078125 C 1956.46875 311.050781 1976.230469 251.921875 2033.351562 219.46875 C 2033.351562 219.46875 2049.601562 273.128906 2030.199219 340.210938 C 2038.011719 323.050781 2044.949219 302.828125 2049.5 279.488281 C 2061.859375 216.089844 2060.660156 179.039062 2058.839844 162.550781 Z M 1278.980469 259.21875 C 1278.980469 259.21875 1159.738281 270.511719 1099.070312 238.050781 C 1038.390625 205.601562 1027.808594 193.601562 1027.808594 193.601562 C 1027.808594 193.601562 1070.839844 262.75 1142.101562 271.921875 C 1213.359375 281.089844 1278.980469 259.21875 1278.980469 259.21875 Z M 1601.019531 259.21875 C 1601.019531 259.21875 1720.261719 270.511719 1780.929688 238.050781 C 1841.609375 205.601562 1852.191406 193.601562 1852.191406 193.601562 C 1852.191406 193.601562 1809.160156 262.75 1737.898438 271.921875 C 1666.640625 281.089844 1601.019531 259.21875 1601.019531 259.21875 "/>
</svg>
